# xmcd
#
# Track frame offsets: 
#        183
#        13983
#        28550
#        41863
#        54803
#        66893
#        79840
#        93600
#        107608
#        120803
#        133833
#        146848
#        160820
#        174118
#        187455
#        202095
#
# Disc length: 2867 seconds
#
# Revision: 1
# Processed by: cddbd v1.5.2PL0 Copyright (c) Steve Scherf et al.
# Submitted via: ExactAudioCopy v1.0b3
#
DISCID=e20b3110
DTITLE=Skip James - Jazz and Blues Collection - CD 87 
DYEAR=1931
DGENRE=Blues
TTITLE0=Devil Got My Woman
TTITLE1=Cypress Grove Blues
TTITLE2=Little Cow And Calf Is Gonna Die Blues
TTITLE3=Hard Time Killin' Floor Blues
TTITLE4=Drunken Spree
TTITLE5=Cherry Ball Blues
TTITLE6=Jesus Is A Mighty Good Leader
TTITLE7=Illinois Blues
TTITLE8=How Long Buck
TTITLE9=Four O'Clock Blues
TTITLE10=22-20 Blues
TTITLE11=Hard Luck Child
TTITLE12=If You Haven't Any Hay Get On Down The Road
TTITLE13=Be Ready When He Comes
TTITLE14=Yola My Blues Away
TTITLE15=I'm So Glad
EXTD=
EXTT0=
EXTT1=
EXTT2=
EXTT3=
EXTT4=
EXTT5=
EXTT6=
EXTT7=
EXTT8=
EXTT9=
EXTT10=
EXTT11=
EXTT12=
EXTT13=
EXTT14=
EXTT15=
PLAYORDER=
